<?xml version="1.0" encoding="UTF-8"?>
<svg version="1.1" xmlns="http://www.w3.org/2000/svg" width="500" height="500">
<path d="M0 0 C165 0 330 0 500 0 C500 165 500 330 500 500 C335 500 170 500 0 500 C0 335 0 170 0 0 Z " fill="#FEFEFE" transform="translate(0,0)"/>
<path d="M0 0 C1.41789675 -0.00935994 1.41789675 -0.00935994 2.86443788 -0.01890898 C6.04694523 -0.03492265 9.22869544 -0.02220096 12.41120911 -0.00964355 C14.68795724 -0.0150617 16.96470187 -0.02218263 19.24143982 -0.03088379 C25.44317585 -0.04917813 31.64464673 -0.04201862 37.84638762 -0.02936745 C44.34947284 -0.01924562 50.85253523 -0.02863326 57.35562134 -0.03491211 C69.00228739 -0.0426692 80.64883283 -0.03020376 92.29547987 -0.00987476 C102.80726103 0.0079086 113.31886494 0.00496799 123.8306427 -0.0135498 C136.06058376 -0.03508459 148.29041188 -0.04284945 160.52036935 -0.03110075 C166.98440912 -0.02490538 173.44832756 -0.02391772 179.91235924 -0.0372467 C186.01342152 -0.04894546 192.1141558 -0.04052775 198.21518326 -0.01766968 C200.43526609 -0.01245157 202.65537729 -0.01377519 204.87544823 -0.02272034 C232.51606898 -0.12367082 260.33183976 2.67488629 281.87922668 21.50793457 C284.51876418 24.33569036 286.32455619 26.97753699 287.87922668 30.50793457 C288.20922668 31.20016113 288.53922668 31.8923877 288.87922668 32.60559082 C293.10982002 43.01209497 291.7065545 56.50693237 287.56672668 66.75793457 C287.00985168 67.66543457 286.45297668 68.57293457 285.87922668 69.50793457 C285.21922668 70.62168457 284.55922668 71.73543457 283.87922668 72.88293457 C278.28333448 80.46772822 269.9257322 85.32242735 260.87922668 87.50793457 C257.84297877 87.93215028 254.88018064 88.03331344 251.81672668 88.00793457 C250.998172 88.00221436 250.17961731 87.99649414 249.33625793 87.99060059 C236.40908099 87.61914436 225.24092933 83.26619434 214.87922668 75.50793457 C214.09934387 74.94203613 213.31946106 74.3761377 212.51594543 73.79309082 C205.919979 68.07658658 201.24329115 61.30579707 196.75422668 53.88293457 C192.73432812 47.21664202 192.73432812 47.21664202 188.01203918 41.04699707 C185.87922668 38.50793457 185.87922668 38.50793457 185.87922668 36.50793457 C185.23985168 36.23980957 184.60047668 35.97168457 183.94172668 35.69543457 C181.87922668 34.50793457 181.87922668 34.50793457 180.87922668 31.50793457 C179.08525938 30.40434685 179.08525938 30.40434685 176.87922668 29.50793457 C176.08645325 29.10574707 175.29367981 28.70355957 174.47688293 28.28918457 C173.22198059 27.65496582 173.22198059 27.65496582 171.94172668 27.00793457 C171.10770325 26.58512207 170.27367981 26.16230957 169.41438293 25.72668457 C164.225486 23.23217634 159.62294823 21.92932403 153.87922668 21.50793457 C152.813172 21.4073877 151.74711731 21.30684082 150.64875793 21.20324707 C144.60695903 20.67342958 144.60695903 20.67342958 139.10969543 22.68371582 C137.71400085 24.54021116 136.861654 26.40161755 135.87922668 28.50793457 C135.29552307 29.69262329 135.29552307 29.69262329 134.70002747 30.90124512 C131.48287109 37.63767662 129.37517268 44.23138826 127.75422668 51.50793457 C127.50197327 52.62152344 127.24971985 53.7351123 126.98982239 54.88244629 C121.99233174 77.99725432 120.83361776 101.79358645 120.56282043 125.38293457 C120.54217098 126.92948865 120.52117296 128.47603811 120.49984741 130.02258301 C120.44544937 134.03365258 120.39568831 138.0447658 120.34700012 142.0559082 C120.29617217 146.17276757 120.24081081 150.28956594 120.18586731 154.40637207 C120.07929695 162.4401742 119.97764088 170.4740284 119.87922668 178.50793457 C125.14118536 178.48823699 130.40153543 178.43569854 135.66291809 178.35534668 C137.44505501 178.33244127 139.22732202 178.31783691 141.00959778 178.31237793 C155.3100825 178.26000996 170.0819431 177.42918837 181.59407043 167.83996582 C183.00002849 166.51565466 183.00002849 166.51565466 183.87922668 164.50793457 C184.53922668 164.50793457 185.19922668 164.50793457 185.87922668 164.50793457 C186.14606262 163.96137207 186.41289856 163.41480957 186.68782043 162.85168457 C198.78425462 139.0554206 198.78425462 139.0554206 205.87922668 135.50793457 C209.25422668 135.13293457 209.25422668 135.13293457 212.87922668 135.50793457 C216.04668188 138.31293862 217.12526683 140.59366233 217.38716125 144.71336365 C217.41085449 146.40636193 217.41255723 148.0997559 217.39680481 149.79284668 C217.40381409 150.72028183 217.41082336 151.64771698 217.41804504 152.60325623 C217.43562743 155.66423627 217.42400023 158.72428912 217.41047668 161.78527832 C217.41317175 163.91610389 217.41705429 166.04692827 217.42207336 168.17774963 C217.42796895 172.64234126 217.41940414 177.10661262 217.40071106 181.57116699 C217.37793559 187.28892775 217.39103569 193.00593689 217.41500092 198.72367001 C217.42946891 203.12380108 217.424848 207.52375458 217.41448975 211.92389107 C217.41182453 214.0317856 217.415085 216.13969634 217.42440796 218.24757195 C217.43458824 221.19669028 217.41905065 224.14459944 217.39680481 227.09362793 C217.40490173 227.96187195 217.41299866 228.83011597 217.42134094 229.72467041 C217.34660496 235.08360748 216.5645374 238.32844779 212.87922668 242.50793457 C209.56672668 243.38293457 209.56672668 243.38293457 205.87922668 242.50793457 C203.06854022 240.19961062 201.02830978 237.42553346 198.87922668 234.50793457 C198.205047 233.62879395 197.53086731 232.74965332 196.83625793 231.84387207 C193.13163222 226.90900479 189.92987585 221.93497504 187.01594543 216.50402832 C183.32339486 210.01985875 178.17995839 204.93558793 171.04328918 202.56652832 C162.63521971 200.37450013 154.32022476 199.39756795 145.66047668 199.19152832 C144.91713074 199.17074722 144.17378479 199.14996613 143.40791321 199.1285553 C141.06509921 199.06388329 138.72218645 199.00456365 136.37922668 198.94543457 C134.77765453 198.90217073 133.17609186 198.85855413 131.57453918 198.8145752 C127.67619936 198.70828821 123.77776159 198.60679663 119.87922668 198.50793457 C116.50983892 273.80516645 116.50983892 273.80516645 141.87922668 340.50793457 C143.5311416 341.85950132 145.19445325 343.19755523 146.87922668 344.50793457 C149.39048702 347.97586551 149.25923002 351.32789786 148.87922668 355.50793457 C147.06873353 358.13314965 144.79342287 359.30058695 141.87922668 360.50793457 C139.05560303 360.76520348 139.05560303 360.76520348 135.73054504 360.77536011 C134.46870392 360.78389008 133.20686279 360.79242004 131.90678406 360.8012085 C130.51087939 360.8005095 129.11497482 360.79958645 127.71907043 360.79846191 C126.24715331 360.80444702 124.77523932 360.81125253 123.30332947 360.81881714 C119.30754063 360.83648306 115.31183745 360.84117268 111.31601334 360.84244871 C107.98086994 360.8443481 104.64574649 360.85170582 101.31061077 360.8587929 C93.44382402 360.87507559 85.57708304 360.87996185 77.71028137 360.87854004 C69.59177851 360.87733761 61.47354107 360.8984597 53.3551054 360.93002737 C46.38600506 360.95616153 39.41699158 360.96690859 32.4478426 360.96562922 C28.28489156 360.96511888 24.12217656 360.97084216 19.95927429 360.99198532 C16.0456009 361.01132056 12.13238992 361.01152496 8.21870041 360.99695206 C6.78196921 360.99485717 5.34520942 360.99960527 3.90852737 361.01167297 C1.94837908 361.02707226 -0.01192621 361.01544247 -1.97209167 361.00241089 C-3.06936081 361.00350042 -4.16662994 361.00458996 -5.29714966 361.00571251 C-8.81001575 360.3864277 -9.97573332 359.310502 -12.12077332 356.50793457 C-12.87077332 353.25793457 -12.87077332 353.25793457 -12.12077332 349.50793457 C-9.25948714 345.76171452 -5.68028643 342.82152446 -2.08952332 339.79699707 C10.23660134 329.37848695 17.80787551 316.64785026 19.87922668 300.50793457 C20.42704807 292.74712041 20.27980782 284.95039472 20.25154114 277.17541504 C20.25397245 274.82684163 20.25769506 272.47826925 20.26260376 270.12969971 C20.27196877 263.78277008 20.26262479 257.43599586 20.24927163 251.08907843 C20.23906572 245.10776392 20.24157436 239.12645843 20.24347415 233.14513852 C20.24665579 221.29420201 20.23504299 209.44332584 20.21540833 197.59240723 C20.19639911 186.11582605 20.18932407 174.63931552 20.19490051 163.16271973 C20.20096936 150.63583628 20.20076167 138.10898379 20.18941468 125.58210289 C20.18344009 118.96160956 20.1797372 112.34113482 20.18238258 105.72063828 C20.18427135 99.49727248 20.17611632 93.2739968 20.16032219 87.05065155 C20.15609354 84.77188363 20.15521919 82.49310653 20.15801239 80.2143364 C20.16125556 77.09432118 20.15209888 73.97457166 20.1399231 70.85458374 C20.14370242 69.96166496 20.14748174 69.06874618 20.15137559 68.14876926 C20.03656878 51.41848747 15.20926508 36.70138723 3.18049622 24.83166504 C-3.4375822 17.92835609 -3.4375822 17.92835609 -11.12077332 12.50793457 C-12.59817015 5.57553406 -12.59817015 5.57553406 -11.18178844 2.40808868 C-7.86952757 -0.64565218 -4.34929041 -0.04364086 0 0 Z " fill="#010101" transform="translate(78.12077331542969,43.4920654296875)"/>
<path d="M0 0 C1.05574219 0.00580078 1.05574219 0.00580078 2.1328125 0.01171875 C7.11262916 0.09471569 11.41607427 0.68035809 16.125 2.25 C16.125 2.91 16.125 3.57 16.125 4.25 C16.66125 4.3325 17.1975 4.415 17.75 4.5 C25.5717448 6.97002467 31.30717415 13.72416239 35.5234375 20.49609375 C39.57894153 29.02415718 39.66158755 40.41855989 36.8125 49.375 C35.44796695 52.76034153 33.85548452 56.03624304 32.125 59.25 C31.465 59.25 30.805 59.25 30.125 59.25 C29.86460937 59.83910156 29.60421875 60.42820312 29.3359375 61.03515625 C25.61766612 67.83599455 18.41618279 71.6873693 11.41015625 74.37109375 C1.49360985 77.02415313 -8.24338108 75.86417602 -17.17578125 70.99609375 C-25.96851402 65.57267707 -31.24255198 58.83897416 -34.875 49.25 C-35.23335938 48.46367187 -35.59171875 47.67734375 -35.9609375 46.8671875 C-38.76151315 38.84844526 -37.38702568 28.86142847 -33.875 21.25 C-28.25454939 11.7098498 -28.25454939 11.7098498 -23.875 10.25 C-23.875 9.59 -23.875 8.93 -23.875 8.25 C-21.8984375 6.8125 -21.8984375 6.8125 -19.25 5.25 C-18.39148438 4.734375 -17.53296875 4.21875 -16.6484375 3.6875 C-11.08478374 0.8038034 -6.226 -0.08254167 0 0 Z " fill="#030303" transform="translate(351.875,328.75)"/>
<path d="M0 0 C0.66 0.33 1.32 0.66 2 1 C1.04270084 2.12588014 0.08412105 3.2506715 -0.875 4.375 C-1.40867187 5.00148438 -1.94234375 5.62796875 -2.4921875 6.2734375 C-5.15188512 9.31899799 -7.21395302 10.60514059 -11 12 C-7.375 6.125 -7.375 6.125 -4 5 C-4 4.34 -4 3.68 -4 3 C-2 1.375 -2 1.375 0 0 Z " fill="#313131" transform="translate(332,334)"/>
<path d="M0 0 C-3.54022989 2.90804598 -3.54022989 2.90804598 -5.875 3.375 C-9.25989569 4.37055756 -11.37738825 6.67541231 -14 9 C-11.18923645 2.10085312 -7.46140034 -0.73150984 0 0 Z " fill="#323232" transform="translate(291,179)"/>
<path d="M0 0 C2.125 0.375 2.125 0.375 4 1 C0.375 6.75 0.375 6.75 -3 9 C-2.25 2.25 -2.25 2.25 0 0 Z " fill="#282828" transform="translate(69,44)"/>
<path d="M0 0 C-0.66 0.66 -1.32 1.32 -2 2 C-2.99 2 -3.98 2 -5 2 C-5 2.66 -5 3.32 -5 4 C-7.475 3.01 -7.475 3.01 -10 2 C-3.24137931 -1.62068966 -3.24137931 -1.62068966 0 0 Z " fill="#393939" transform="translate(250,219)"/>
</svg>
